<mxfile host="app.diagrams.net" agent="Mozilla/5.0 (X11; Ubuntu; Linux x86_64; rv:142.0) Gecko/20100101 Firefox/142.0" version="28.1.2">
  <diagram name="Page-1" id="XCabEsz14lC1qjqIhGBI">
    <mxGraphModel dx="1188" dy="688" grid="1" gridSize="10" guides="1" tooltips="1" connect="1" arrows="1" fold="1" page="1" pageScale="1" pageWidth="827" pageHeight="1169" math="0" shadow="0">
      <root>
        <mxCell id="0" />
        <mxCell id="1" parent="0" />
        <mxCell id="hCTmoSUnxzTiOYk0USTZ-1" value="«component»&lt;br&gt;&lt;b&gt;Browser extension&lt;/b&gt;" style="html=1;dropTarget=0;whiteSpace=wrap;" vertex="1" parent="1">
          <mxGeometry x="140" y="200" width="140" height="80" as="geometry" />
        </mxCell>
        <mxCell id="hCTmoSUnxzTiOYk0USTZ-2" value="" style="shape=module;jettyWidth=8;jettyHeight=4;" vertex="1" parent="hCTmoSUnxzTiOYk0USTZ-1">
          <mxGeometry x="1" width="20" height="20" relative="1" as="geometry">
            <mxPoint x="-27" y="7" as="offset" />
          </mxGeometry>
        </mxCell>
        <mxCell id="hCTmoSUnxzTiOYk0USTZ-3" value="«component»&lt;br&gt;&lt;b&gt;Web app&lt;/b&gt;" style="html=1;dropTarget=0;whiteSpace=wrap;" vertex="1" parent="1">
          <mxGeometry x="140" y="300" width="140" height="80" as="geometry" />
        </mxCell>
        <mxCell id="hCTmoSUnxzTiOYk0USTZ-4" value="" style="shape=module;jettyWidth=8;jettyHeight=4;" vertex="1" parent="hCTmoSUnxzTiOYk0USTZ-3">
          <mxGeometry x="1" width="20" height="20" relative="1" as="geometry">
            <mxPoint x="-27" y="7" as="offset" />
          </mxGeometry>
        </mxCell>
        <mxCell id="hCTmoSUnxzTiOYk0USTZ-5" value="«component»&lt;br&gt;&lt;b&gt;Backend server&lt;/b&gt;" style="html=1;dropTarget=0;whiteSpace=wrap;" vertex="1" parent="1">
          <mxGeometry x="390" y="250" width="140" height="80" as="geometry" />
        </mxCell>
        <mxCell id="hCTmoSUnxzTiOYk0USTZ-6" value="" style="shape=module;jettyWidth=8;jettyHeight=4;" vertex="1" parent="hCTmoSUnxzTiOYk0USTZ-5">
          <mxGeometry x="1" width="20" height="20" relative="1" as="geometry">
            <mxPoint x="-27" y="7" as="offset" />
          </mxGeometry>
        </mxCell>
        <mxCell id="hCTmoSUnxzTiOYk0USTZ-9" value="&lt;b&gt;Database&lt;/b&gt;" style="strokeWidth=2;html=1;shape=mxgraph.flowchart.database;whiteSpace=wrap;spacingBottom=-17;" vertex="1" parent="1">
          <mxGeometry x="660" y="250" width="140" height="80" as="geometry" />
        </mxCell>
        <mxCell id="hCTmoSUnxzTiOYk0USTZ-12" value="" style="html=1;verticalAlign=bottom;labelBackgroundColor=none;endArrow=oval;endFill=0;endSize=8;rounded=0;" edge="1" parent="1" source="hCTmoSUnxzTiOYk0USTZ-5">
          <mxGeometry width="160" relative="1" as="geometry">
            <mxPoint x="230" y="374.71" as="sourcePoint" />
            <mxPoint x="350" y="290" as="targetPoint" />
          </mxGeometry>
        </mxCell>
        <mxCell id="hCTmoSUnxzTiOYk0USTZ-14" value="" style="rounded=0;orthogonalLoop=1;jettySize=auto;html=1;endArrow=halfCircle;endFill=0;endSize=6;strokeWidth=1;sketch=0;fontSize=12;curved=1;" edge="1" parent="1" source="hCTmoSUnxzTiOYk0USTZ-1">
          <mxGeometry relative="1" as="geometry">
            <mxPoint x="365" y="315" as="sourcePoint" />
            <mxPoint x="350" y="290" as="targetPoint" />
          </mxGeometry>
        </mxCell>
        <mxCell id="hCTmoSUnxzTiOYk0USTZ-15" value="" style="ellipse;whiteSpace=wrap;html=1;align=center;aspect=fixed;fillColor=none;strokeColor=none;resizable=0;perimeter=centerPerimeter;rotatable=0;allowArrows=0;points=[];outlineConnect=1;" vertex="1" parent="1">
          <mxGeometry x="340" y="310" width="10" height="10" as="geometry" />
        </mxCell>
        <mxCell id="hCTmoSUnxzTiOYk0USTZ-16" value="" style="rounded=0;orthogonalLoop=1;jettySize=auto;html=1;endArrow=halfCircle;endFill=0;endSize=6;strokeWidth=1;sketch=0;fontSize=12;curved=1;" edge="1" parent="1" source="hCTmoSUnxzTiOYk0USTZ-3">
          <mxGeometry relative="1" as="geometry">
            <mxPoint x="240" y="280" as="sourcePoint" />
            <mxPoint x="350" y="290" as="targetPoint" />
          </mxGeometry>
        </mxCell>
        <mxCell id="hCTmoSUnxzTiOYk0USTZ-17" value="REST-API" style="text;html=1;align=center;verticalAlign=middle;resizable=0;points=[];autosize=1;strokeColor=none;fillColor=none;fontSize=9;" vertex="1" parent="1">
          <mxGeometry x="300" y="320" width="70" height="20" as="geometry" />
        </mxCell>
        <mxCell id="hCTmoSUnxzTiOYk0USTZ-18" value="" style="html=1;verticalAlign=bottom;labelBackgroundColor=none;endArrow=oval;endFill=0;endSize=8;rounded=0;" edge="1" parent="1" source="hCTmoSUnxzTiOYk0USTZ-9">
          <mxGeometry width="160" relative="1" as="geometry">
            <mxPoint x="380" y="300" as="sourcePoint" />
            <mxPoint x="610" y="290" as="targetPoint" />
          </mxGeometry>
        </mxCell>
        <mxCell id="hCTmoSUnxzTiOYk0USTZ-19" value="" style="rounded=0;orthogonalLoop=1;jettySize=auto;html=1;endArrow=halfCircle;endFill=0;endSize=6;strokeWidth=1;sketch=0;fontSize=12;curved=1;" edge="1" parent="1" source="hCTmoSUnxzTiOYk0USTZ-5">
          <mxGeometry relative="1" as="geometry">
            <mxPoint x="240" y="269" as="sourcePoint" />
            <mxPoint x="610" y="290" as="targetPoint" />
          </mxGeometry>
        </mxCell>
        <mxCell id="hCTmoSUnxzTiOYk0USTZ-20" value="SQL Interface" style="text;html=1;align=center;verticalAlign=middle;resizable=0;points=[];autosize=1;strokeColor=none;fillColor=none;fontSize=9;" vertex="1" parent="1">
          <mxGeometry x="545" y="300" width="80" height="20" as="geometry" />
        </mxCell>
        <mxCell id="hCTmoSUnxzTiOYk0USTZ-21" value="" style="html=1;verticalAlign=bottom;labelBackgroundColor=none;endArrow=oval;endFill=0;endSize=8;rounded=0;" edge="1" parent="1" source="hCTmoSUnxzTiOYk0USTZ-1">
          <mxGeometry width="160" relative="1" as="geometry">
            <mxPoint x="110" y="270" as="sourcePoint" />
            <mxPoint x="80" y="240" as="targetPoint" />
          </mxGeometry>
        </mxCell>
        <mxCell id="hCTmoSUnxzTiOYk0USTZ-22" value="" style="html=1;verticalAlign=bottom;labelBackgroundColor=none;endArrow=oval;endFill=0;endSize=8;rounded=0;" edge="1" parent="1" source="hCTmoSUnxzTiOYk0USTZ-3">
          <mxGeometry width="160" relative="1" as="geometry">
            <mxPoint x="150" y="263" as="sourcePoint" />
            <mxPoint x="90" y="340" as="targetPoint" />
          </mxGeometry>
        </mxCell>
        <mxCell id="hCTmoSUnxzTiOYk0USTZ-23" value="" style="shape=umlActor;verticalLabelPosition=bottom;verticalAlign=top;html=1;outlineConnect=0;" vertex="1" parent="1">
          <mxGeometry x="10" y="285" width="30" height="60" as="geometry" />
        </mxCell>
        <mxCell id="hCTmoSUnxzTiOYk0USTZ-24" value="" style="rounded=0;orthogonalLoop=1;jettySize=auto;html=1;endArrow=halfCircle;endFill=0;endSize=6;strokeWidth=1;sketch=0;fontSize=12;curved=1;" edge="1" parent="1" source="hCTmoSUnxzTiOYk0USTZ-23">
          <mxGeometry relative="1" as="geometry">
            <mxPoint x="290" y="323" as="sourcePoint" />
            <mxPoint x="80" y="240" as="targetPoint" />
          </mxGeometry>
        </mxCell>
        <mxCell id="hCTmoSUnxzTiOYk0USTZ-25" value="" style="rounded=0;orthogonalLoop=1;jettySize=auto;html=1;endArrow=halfCircle;endFill=0;endSize=6;strokeWidth=1;sketch=0;fontSize=12;curved=1;" edge="1" parent="1" source="hCTmoSUnxzTiOYk0USTZ-23">
          <mxGeometry relative="1" as="geometry">
            <mxPoint x="50" y="276" as="sourcePoint" />
            <mxPoint x="90" y="340" as="targetPoint" />
          </mxGeometry>
        </mxCell>
        <mxCell id="hCTmoSUnxzTiOYk0USTZ-26" value="Active GUI" style="text;html=1;align=center;verticalAlign=middle;resizable=0;points=[];autosize=1;strokeColor=none;fillColor=none;fontSize=9;" vertex="1" parent="1">
          <mxGeometry x="50" y="210" width="70" height="20" as="geometry" />
        </mxCell>
        <mxCell id="hCTmoSUnxzTiOYk0USTZ-27" value="Passive GUI" style="text;html=1;align=center;verticalAlign=middle;resizable=0;points=[];autosize=1;strokeColor=none;fillColor=none;fontSize=9;" vertex="1" parent="1">
          <mxGeometry x="60" y="350" width="70" height="20" as="geometry" />
        </mxCell>
        <mxCell id="hCTmoSUnxzTiOYk0USTZ-28" value="" style="html=1;verticalAlign=bottom;labelBackgroundColor=none;endArrow=oval;endFill=0;endSize=8;rounded=0;edgeStyle=orthogonalEdgeStyle;" edge="1" parent="1" source="hCTmoSUnxzTiOYk0USTZ-5">
          <mxGeometry width="160" relative="1" as="geometry">
            <mxPoint x="400" y="300" as="sourcePoint" />
            <mxPoint x="200" y="470" as="targetPoint" />
            <Array as="points">
              <mxPoint x="460" y="470" />
              <mxPoint x="200" y="470" />
            </Array>
          </mxGeometry>
        </mxCell>
        <mxCell id="hCTmoSUnxzTiOYk0USTZ-30" value="Content Interface" style="text;html=1;align=center;verticalAlign=middle;resizable=0;points=[];autosize=1;strokeColor=none;fillColor=none;fontSize=9;" vertex="1" parent="1">
          <mxGeometry x="150" y="480" width="90" height="20" as="geometry" />
        </mxCell>
        <mxCell id="hCTmoSUnxzTiOYk0USTZ-31" value="" style="rounded=0;orthogonalLoop=1;jettySize=auto;html=1;endArrow=halfCircle;endFill=0;endSize=6;strokeWidth=1;sketch=0;fontSize=12;edgeStyle=orthogonalEdgeStyle;" edge="1" parent="1" source="hCTmoSUnxzTiOYk0USTZ-23">
          <mxGeometry relative="1" as="geometry">
            <mxPoint x="290" y="325" as="sourcePoint" />
            <mxPoint x="200" y="470" as="targetPoint" />
            <Array as="points">
              <mxPoint x="25" y="470" />
            </Array>
          </mxGeometry>
        </mxCell>
        <mxCell id="hCTmoSUnxzTiOYk0USTZ-33" value="User" style="text;html=1;align=center;verticalAlign=middle;resizable=0;points=[];autosize=1;strokeColor=none;fillColor=none;fontSize=12;" vertex="1" parent="1">
          <mxGeometry y="255" width="50" height="30" as="geometry" />
        </mxCell>
      </root>
    </mxGraphModel>
  </diagram>
</mxfile>
